<?xml version="1.0" encoding="utf-8"?>
<!-- Generator: Adobe Illustrator 24.3.0, SVG Export Plug-In . SVG Version: 6.00 Build 0)  -->
<svg version="1.1" id="Layer_2" xmlns="http://www.w3.org/2000/svg" xmlns:xlink="http://www.w3.org/1999/xlink" x="0px" y="0px"
	 viewBox="0 0 88.9 121.8" style="enable-background:new 0 0 88.9 121.8;" xml:space="preserve">
<style type="text/css">
	.st0{fill:#58A328;}
</style>
<g id="Layer_1-2">
	<g id="LT_Pressed">
		<path class="st0" d="M14.2,55.4v0.7C14.2,55.9,14.2,55.6,14.2,55.4z"/>
		<path class="st0" d="M88.9,121.8l-53.2-7.2L38,4.6c0.4,0.3,0.8,0.6,1.2,0.9C45.9,10.8,76.9,5,88.9,121.8z"/>
		<path class="st0" d="M38,4.6c0,0,2,22.3,1.2,59.8c-0.7,29.7-0.7,50.6-0.7,50.6S9.9,111.9,0,109.7c1.8-31,1.8-62.1,0-93.1v-1.2
			C0.1,11.6,1.4,0.6,12.2,0.1C24.4-0.3,31.6,0.1,38,4.6z"/>
	</g>
</g>
</svg>
